<svg height="464pt" viewBox="0 0 464 464" width="464pt" xmlns="http://www.w3.org/2000/svg"><path d="m464 32v272h-464v-272c0-17.671875 14.328125-32 32-32h400c17.671875 0 32 14.328125 32 32zm0 0" fill="#57a4ff"/><path d="m0 352c0 8.835938 7.164062 16 16 16h432c8.835938 0 16-7.164062 16-16v-48h-464zm0 0" fill="#898890"/><path d="m312 432h-40v-64h-80v64h-40c-8.835938 0-16 7.164062-16 16s7.164062 16 16 16h160c8.835938 0 16-7.164062 16-16s-7.164062-16-16-16zm0 0" fill="#57565c"/><path d="m32 32h400v240h-400zm0 0" fill="#f1f2f2"/><g fill="#ff5023"><path d="m144 224c-4.417969 0-8-3.582031-8-8v-128c0-4.417969 3.582031-8 8-8s8 3.582031 8 8v128c0 4.417969-3.582031 8-8 8zm0 0"/><path d="m168 192h-72c-13.253906 0-24-10.746094-24-24 0-.539062.054688-1.074219.160156-1.601562l16-80c.472656-2.882813 2.484375-5.28125 5.242188-6.25 2.761718-.96875 5.828125-.355469 8 1.601562 2.175781 1.953125 3.109375 4.941406 2.4375 7.785156l-15.839844 79.121094c.34375 4.160156 3.824219 7.359375 8 7.34375h72c4.417969 0 8 3.582031 8 8s-3.582031 8-8 8zm0 0"/><path d="m256 224h-48c-13.253906 0-24-10.746094-24-24v-96c0-13.253906 10.746094-24 24-24h48c13.253906 0 24 10.746094 24 24v96c0 13.253906-10.746094 24-24 24zm-48-128c-4.417969 0-8 3.582031-8 8v96c0 4.417969 3.582031 8 8 8h48c4.417969 0 8-3.582031 8-8v-96c0-4.417969-3.582031-8-8-8zm0 0"/><path d="m368 224c-4.417969 0-8-3.582031-8-8v-128c0-4.417969 3.582031-8 8-8s8 3.582031 8 8v128c0 4.417969-3.582031 8-8 8zm0 0"/><path d="m392 192h-72c-13.253906 0-24-10.746094-24-24 0-.539062.054688-1.074219.160156-1.601562l16-80c.992188-4.195313 5.128906-6.851563 9.355469-6.003907 4.226563.84375 7.023437 4.886719 6.324219 9.140625l-15.839844 79.121094c.34375 4.160156 3.824219 7.359375 8 7.34375h72c4.417969 0 8 3.582031 8 8s-3.582031 8-8 8zm0 0"/></g></svg>