<?xml version="1.0" encoding="iso-8859-1"?>
<!-- Generator: Adobe Illustrator 19.0.0, SVG Export Plug-In . SVG Version: 6.00 Build 0)  -->
<svg version="1.1" id="Capa_1" xmlns="http://www.w3.org/2000/svg" xmlns:xlink="http://www.w3.org/1999/xlink" x="0px" y="0px"
	 viewBox="0 0 512 512" style="enable-background:new 0 0 512 512;" xml:space="preserve">
<path style="fill:#3C3A41;" d="M316,512c-8.291,0-15-6.709-15-15v-62c0-8.291,6.709-15,15-15s15,6.709,15,15v62
	C331,505.291,324.291,512,316,512z"/>
<path style="fill:#57555C;" d="M241,422.399V497c0,8.399-6.599,15-15,15s-15-6.601-15-15v-74.601c0-8.099,6.599-15,15-15
	S241,414.3,241,422.399z"/>
<path style="fill:#3C3A41;" d="M241,422.399V497c0,8.399-6.599,15-15,15V407.399C234.401,407.399,241,414.3,241,422.399z"/>
<path style="fill:#73553A;" d="M346,120l-120,45.3l-90,34.199c-8.401,0-15,6.601-15,15V285c0,69.899,43.5,129.6,105,153.6
	c18.6,7.5,38.699,11.4,60,11.4h75V135C361,126.599,354.401,120,346,120z"/>
<path style="fill:#59422D;" d="M361,135v315h-75c-21.301,0-41.4-3.9-60-11.4V165.3L346,120C354.401,120,361,126.599,361,135z"/>
<path style="fill:#A07854;" d="M226,0C151.601,0,91,60.599,91,135c0,74.399,60.601,135,135,135s135-60.601,135-135
	C361,60.599,300.399,0,226,0z"/>
<path style="fill:#896748;" d="M361,135c0,74.399-60.601,135-135,135V0C300.399,0,361,60.599,361,135z"/>
<path style="fill:#C8AD92;" d="M226,240c-57.891,0-105-47.109-105-105S168.109,30,226,30s105,47.109,105,105S283.891,240,226,240z"
	/>
<path style="fill:#BC9B7D;" d="M331,135c0-57.891-47.109-105-105-105v210C283.891,240,331,192.891,331,135z"/>
<path style="fill:#10BB67;" d="M75.015,512c-5.508,0-10.796-3.032-13.433-8.291l-30-62c-3.706-7.412-0.703-16.421,6.709-20.127
	c7.427-3.662,16.406-0.688,20.127,6.709l30,62c3.706,7.412,0.703,16.421-6.709,20.127C79.556,511.487,77.271,512,75.015,512z"/>
<path style="fill:#73553A;" d="M251.499,190.499l-15,15C233.8,208.5,229.9,210,226,210s-7.8-1.5-10.499-4.501l-15-15
	c-6-5.7-6-15.3,0-21c5.7-5.999,15.298-5.999,20.999,0l4.501,4.2l4.501-4.2c5.7-5.999,15.298-5.999,20.999,0
	C257.5,175.199,257.5,184.799,251.499,190.499z"/>
<circle style="fill:#3C3A41;" cx="286" cy="135" r="15"/>
<circle style="fill:#57555C;" cx="166" cy="135" r="15"/>
<path style="fill:#73553A;" d="M391,15c0,41.4-33.6,75-75,75h-30c-24.901,0-45,20.099-45,45c0,8.399-6.599,15-15,15s-15-6.601-15-15
	c0-24.901-20.099-45-45-45h-30c-41.4,0-75-33.6-75-75c0-8.401,6.599-15,15-15s15,6.599,15,15c0,24.899,20.099,45,45,45h30
	c24.6,0,46.199,11.999,60,30.599C239.801,71.999,261.4,60,286,60h30c24.901,0,45-20.101,45-45c0-8.401,6.599-15,15-15
	S391,6.599,391,15z"/>
<path style="fill:#A07854;" d="M451,435c0,7.5-6.301,15-15,15H331c-49.501-0.901-86.1-25.8-105-60c-9.901-17.1-15-36.601-15-56.7
	c0-15.3,5.099-30.3,15-41.7c10.201-12.9,26.1-21.599,44.7-21.599c28.5,0,53.701,19.499,59.101,49.2l1.8,10.199l10.199,1.8
	c24.3,4.501,43.5,23.699,48.001,48.001l1.5,10.8H406C430.901,390,451,410.099,451,435z"/>
<path style="fill:#896748;" d="M451,435c0,7.5-6.301,15-15,15H331c-49.501-0.901-86.1-25.8-105-60v-98.401
	c10.201-12.9,26.1-21.599,44.7-21.599c28.5,0,53.701,19.499,59.101,49.2l1.8,10.199l10.199,1.8
	c24.3,4.501,43.5,23.699,48.001,48.001l1.5,10.8H406C430.901,390,451,410.099,451,435z"/>
<g>
	<path style="fill:#59422D;" d="M251.499,169.499c6,5.7,6,15.3,0,21l-15,15C233.8,208.5,229.9,210,226,210v-36.301l4.501-4.2
		C236.201,163.5,245.799,163.5,251.499,169.499z"/>
	<path style="fill:#59422D;" d="M391,15c0,41.4-33.6,75-75,75h-30c-24.901,0-45,20.099-45,45c0,8.399-6.599,15-15,15V90.599
		C239.801,71.999,261.4,60,286,60h30c24.901,0,45-20.101,45-45c0-8.401,6.599-15,15-15S391,6.599,391,15z"/>
</g>
<path style="fill:#10BB67;" d="M512,497c0,8.399-6.599,15-15,15H15c-8.401,0-15-6.601-15-15c0-8.401,6.599-15,15-15h482
	C505.401,482,512,488.599,512,497z"/>
<path style="fill:#0CA656;" d="M512,497c0,8.399-6.599,15-15,15H226v-30h271C505.401,482,512,488.599,512,497z"/>
<g>
</g>
<g>
</g>
<g>
</g>
<g>
</g>
<g>
</g>
<g>
</g>
<g>
</g>
<g>
</g>
<g>
</g>
<g>
</g>
<g>
</g>
<g>
</g>
<g>
</g>
<g>
</g>
<g>
</g>
</svg>
